<svg width="738" height="738" viewBox="0 0 738 738" fill="none" xmlns="http://www.w3.org/2000/svg">
<g clip-path="url(#clip0_67_1833)">
<path opacity="0.41" d="M738 0H0V738H738V0Z" fill="white"/>
<path opacity="0.32" d="M82.2988 536.002H340.583C350.986 526.806 360.413 516.533 368.661 505.333C381.359 517.221 395.539 527.541 410.889 536.002H613.008C677.774 500.311 721.658 431.392 721.658 352.215C721.658 236.392 627.765 142.499 511.942 142.499C504.677 142.499 497.499 142.869 490.426 143.59C465.253 101.682 419.361 73.6362 366.915 73.6362C295.048 73.6362 235.486 126.289 224.684 195.121C220.311 194.829 215.902 194.665 211.453 194.665C103.698 194.665 16.3452 282.018 16.3452 389.773C16.3437 447.998 41.8549 500.253 82.2988 536.002Z" fill="#EEE0D2"/>
<path d="M68.2283 539.353C67.8017 520.937 70.6327 501.642 70.1972 482.616C124.319 483.136 178.443 482.815 232.565 482.817C241.317 482.817 257.629 478.523 263.025 490.332C265.792 496.388 264.653 527.046 261.44 533.079C255.435 544.351 241.038 540.367 231.974 540.366C202.004 540.364 172.034 540.366 142.062 540.364C127.026 540.364 111.992 540.363 96.9557 540.359C92.2826 540.359 71.8681 544.593 68.2283 539.353Z" fill="#EEE0D2"/>
<path d="M253.381 536.249C266.344 534.776 266.53 496.952 259.683 488.911C250.076 477.627 86.8006 489.121 68.7801 483.847C51.663 478.837 64.8215 477.137 75.3557 477.131C90.8257 477.124 248.313 472.756 260.61 480.318C272.452 487.6 273.504 518.437 268.378 530.825C260.361 550.206 232.407 542.924 217.276 542.924C175.572 542.924 133.991 542.93 92.2766 542.928C88.4242 542.928 47.4697 544.395 64.6828 536.465C70.7506 533.669 151.568 536.458 182 536.458C196.345 536.455 246.747 539.598 253.381 536.249Z" fill="#A81DFF"/>
<path d="M225.39 402.404C225.816 424.771 222.985 448.207 223.421 471.317C169.299 470.685 115.175 471.075 61.0535 471.074C52.3008 471.074 35.9895 476.288 30.5933 461.944C27.8258 454.588 28.9652 417.352 32.1785 410.025C38.1829 396.335 52.5798 401.173 61.6439 401.173C91.6141 401.175 121.584 401.173 151.556 401.175C166.592 401.176 181.626 401.176 196.662 401.181C201.336 401.184 221.75 396.04 225.39 402.404Z" fill="#EEE0D2"/>
<path d="M39.9584 407.133C27.0124 409.051 27.2559 455.192 34.1931 464.938C43.9274 478.613 207.065 463.072 225.145 469.338C242.317 475.289 229.18 477.487 218.646 477.592C203.176 477.745 45.7458 484.539 33.3651 475.428C21.4405 466.654 20.0383 429.049 25.0227 413.889C32.8205 390.173 60.8556 398.797 75.9846 398.655C117.688 398.267 159.265 397.873 200.978 397.488C204.829 397.452 245.767 395.279 228.644 405.116C222.609 408.583 141.764 405.933 111.332 406.217C96.9896 406.352 46.5532 402.986 39.9584 407.133Z" fill="#B941FF"/>
<path d="M585.227 513.597L607.181 416.863L618.142 367.988L623.841 332.727C619.883 339.23 615.928 345.733 611.971 352.236C599.225 405.957 586.479 459.677 573.733 513.398L585.227 513.597Z" fill="#CC75FF"/>
<path d="M620.034 393.6L591.32 513.816L603.456 509.875L639.684 346.24L632.284 349.6L628.793 357.65L620.034 393.6Z" fill="#CC75FF"/>
<path d="M628.792 357.65L621.91 348.062L607.804 332.454L574.124 301.232L488.268 221.63L482.409 218.049L480.104 227.181L500.351 249.364L549.288 294.544L591.243 333.262L611.97 352.239L628.792 357.65Z" fill="#CC75FF"/>
<path d="M628.506 328.417L524.752 235.557L500.329 213.63L492.969 207.05L487.328 217.364L508.587 234.209L553.958 275.027L600.249 316.725L622.059 336.287L629.673 338.318L628.506 328.417Z" fill="#CC75FF"/>
<path d="M475.975 258.366C466.214 237.942 456.711 217.234 448.036 196.326C452.487 198.328 466.939 206.04 466.939 206.04L474.632 197.565C474.632 197.565 456.726 184.262 445.391 187.837C444.005 188.273 441.732 191.501 441.732 191.501C441.732 191.501 434.486 189.876 432.195 189.372C427.532 188.343 422.75 187.602 418.338 186.645C412.473 185.375 405.633 182.572 399.583 182.712C391.114 182.907 384.32 191.138 377.508 196.476C362.811 207.988 348.572 220.41 333.361 231.224C337.173 236.147 353.25 236.717 358.621 237.877C372.578 240.893 386.532 243.916 400.494 246.906C409.876 248.915 419.302 250.747 428.675 252.797C439.332 255.127 450.022 257.369 460.674 259.706C463.891 260.41 479.774 266.313 475.975 258.366Z" fill="#CC75FF"/>
<path d="M449.855 185.978C448.955 177.891 451.268 164.597 453.051 156.687C453.371 140.402 439.379 126.119 422.693 128.959C414.44 130.364 407.335 135.846 403.736 143.396C401.767 147.527 395.735 166.762 397.635 169.785C400.327 174.071 446.852 188.777 449.855 185.978Z" fill="#CC75FF"/>
<path d="M647.639 350.011C648.99 347.361 632.75 321.984 628.143 321.636C623.215 321.262 612.449 337.312 608.748 341.769C603.947 347.551 602.598 347.156 605.688 353.956C609.139 361.547 614.437 367.849 622.49 366.186C628.447 364.955 646.013 350.692 647.639 350.011Z" fill="#A81DFF"/>
<path d="M488.41 192.986C479.116 192.577 460.143 188.052 458.006 201.214C456.86 208.267 470.279 233.842 477.801 235.612C482.568 236.732 508.284 193.859 488.41 192.986Z" fill="#A81DFF"/>
<path d="M396.25 167.67C394.046 174.034 391.844 180.399 389.641 186.762L450.223 199.612V180.52C432.232 176.237 414.241 171.953 396.25 167.67Z" fill="#A81DFF"/>
<path d="M618.587 544.264H509.766C500.025 544.264 492.054 536.294 492.054 526.552V510.635C492.054 500.893 500.025 492.923 509.766 492.923H618.587C628.329 492.923 636.299 500.893 636.299 510.635V526.552C636.299 536.294 628.329 544.264 618.587 544.264Z" fill="#CC75FF"/>
<path d="M315.077 342.697C321.53 342.997 325.411 346.515 325.492 353.053C325.645 365.612 325.554 378.177 325.344 390.736C325.236 397.188 320.934 401.176 314.363 401.436C312.45 401.511 310.531 401.445 308.615 401.437C253.47 401.209 198.326 400.974 143.179 400.764C140.419 400.754 137.659 400.958 134.899 401.064C109.816 400.854 84.7327 400.606 59.6496 400.447C48.1988 400.375 44.5206 397.805 43.5258 386.474C42.4483 374.214 42.5561 361.82 44.7007 349.64C45.5789 344.653 48.922 341.596 54.6105 341.55C61.0739 341.497 312.568 342.58 315.077 342.697Z" fill="#A81DFF"/>
<path d="M315.207 371.919C315.202 377.872 315.111 383.824 315.236 389.774C315.312 393.334 313.762 394.694 310.27 394.654C300.918 394.546 291.563 394.527 282.211 394.664C278.486 394.719 276.798 393.446 276.844 389.513C276.984 377.61 276.983 365.705 276.844 353.802C276.798 349.921 278.375 348.535 282.153 348.594C291.291 348.735 300.44 348.819 309.572 348.561C314.243 348.43 315.425 350.514 315.264 354.704C315.046 360.433 315.211 366.179 315.207 371.919Z" fill="#46006F"/>
<path d="M278.053 294.81C248.719 292.163 228.693 298.745 215.509 305.68C203.664 311.911 197.731 318.222 185.366 318.705C171.222 319.257 164.556 311.069 145.229 303.298C135.873 299.536 121.641 294.718 102.988 291.914C103.581 309.277 104.176 326.642 104.769 344.006C127.407 349.376 155.984 353.752 189.028 353.225C225.218 352.648 256.12 346.359 279.975 339.397C279.334 324.533 278.694 309.671 278.053 294.81Z" fill="#CC75FF"/>
<path d="M188.028 266.28C149.234 278.358 110.439 290.435 71.645 302.513C111.715 309.362 151.786 316.21 191.856 323.059C232.48 316.972 273.104 310.883 313.728 304.796C271.829 291.958 229.928 279.118 188.028 266.28Z" fill="#A81DFF"/>
<path d="M135.185 321.865C134.145 336.409 132.511 339.022 134.622 343.833C136.688 348.543 138.92 347.56 140.959 352.009C145.259 361.388 139.929 375.597 132.772 377.365C130.946 377.817 128.754 377.322 126.136 375.476C119.602 370.866 122.784 349.68 126.557 343.832C130.76 337.318 128.777 312.221 133.069 307.723C135.55 305.122 136.97 305.264 150.356 300.466C172.673 292.464 181.13 287.862 181.687 288.919C182.314 290.112 172.723 298.232 159.97 303.274C148.407 307.846 139.972 305.153 136.312 311.161C135.312 312.802 135.81 313.14 135.185 321.865Z" fill="#A81DFF"/>
<path d="M359.123 499.752C349.396 499.274 334.508 499.472 317.089 503.774C307.925 506.039 300.534 508.542 289.681 512.958C257.961 525.866 247.075 528.58 232.973 529.172C224.61 529.523 214.042 525.438 214.042 525.438C214.042 525.438 229.911 498.377 233.097 495.496C250.706 492.992 271.999 491.287 296.109 492.089C320.382 492.896 341.64 496.047 359.123 499.752Z" fill="#FFFEFD"/>
<path d="M427.938 499.677C447.627 491.519 464.816 489.104 476.208 488.381C486.174 487.749 496.414 489.01 516.467 491.19C533.288 493.019 547.134 494.933 556.673 496.346C561.544 503.856 566.416 511.366 571.287 518.875C550.149 514.518 527.571 510.555 503.653 507.264C476.983 503.593 451.666 501.174 427.938 499.677Z" fill="#FFFEFD"/>
<path d="M429.832 538.059C418.529 537.917 411.752 538.838 402.954 531.352C399.888 528.744 397.776 527.877 397.146 526.189C396.564 524.633 397.215 523.299 397.838 521.414C398.454 519.551 398.865 518.009 399.162 516.701C399.912 513.401 400.334 511.039 400.421 510.555C401.243 506 417.366 496.191 432.139 493.676C469.688 487.28 564.565 516.759 571.29 518.875C571.783 522.368 572.701 527.393 574.551 533.263C576.686 540.047 578.177 542.18 577.293 544.175C575.537 548.143 555.819 544.989 552.104 544.809C511.472 542.841 470.227 542.22 429.832 538.059Z" fill="#EEE0D2"/>
<path d="M236.919 480.749L271.559 426.98C271.559 426.98 299.65 431.756 328.761 448.058C334.487 451.266 342.612 455.853 352.622 463.271C369.527 475.801 381.505 488.771 389.364 498.479C408.963 468.494 431.066 451.781 444.713 443.13C460.618 433.049 485.856 417.049 507.176 426.256C509.249 427.152 512.505 429.164 512.505 429.164L541.429 478.845C541.429 478.845 530.256 482.33 513.686 481.45C498.501 480.643 439.454 477.505 411.763 506.554C403.56 515.157 399.547 525.078 391.178 524.809C383.987 524.577 381.04 517.063 370.34 509.116C361.934 502.873 354.671 500.765 340.873 496.762C305.11 486.381 236.919 480.749 236.919 480.749Z" fill="white"/>
<path d="M579.769 538.62C569.354 536.088 557.305 536.756 546.64 536.406C522.789 535.62 498.668 533.941 475.036 533.175C463.841 532.812 452.434 532.933 441.258 531.861C432.412 531.012 422.198 528.178 413.296 530.171C405.741 531.863 401.909 538.358 393.322 538.575C384.361 538.801 381.165 532.46 373.691 530.077C364.178 527.043 351.042 531.749 341.232 532.072C330.618 532.422 319.969 532.627 309.405 532.782C287.767 533.099 265.906 535.722 244.159 536.391C233.221 536.727 200.147 532.823 199.598 547.952C203.907 555.492 231.605 549.204 238.969 548.844C253.391 548.137 267.81 547.921 282.244 547.62C309.43 547.625 338.119 550.079 365.47 548.022C374.262 548.822 382.941 550.516 391.614 550.782C402.761 551.124 414.114 547.826 425.58 547.851C454.484 547.916 483.392 547.492 512.295 547.896C525.25 548.078 538.204 548.42 551.146 549.045C559.575 549.451 574.777 553.634 582.57 550.276C591.135 546.587 586.74 540.314 579.769 538.62Z" fill="#A81DFF"/>
<path d="M205.062 543.818C207.777 539.021 214.041 525.438 214.041 525.438C214.041 525.438 248.972 518.109 260.31 515.424C287.658 508.946 313.294 495.615 342.135 497.181C352.993 497.771 363.469 501.172 372.351 507.556C376.08 510.238 382.73 514.986 384.514 519.383C387.201 526.003 385.512 524.227 379.567 529.197C369.66 537.476 360.74 536.183 347.777 536.747C334.502 537.324 237.633 542.348 205.062 543.818Z" fill="#EEE0D2"/>
<path d="M396.762 514.12C398.675 514.196 403.147 514.647 407.345 517.826C414.603 523.322 414.784 532.237 414.79 533.392C413.51 533.541 411.584 533.609 409.376 533.054C407.158 532.496 405.603 531.545 404.464 530.803C396.95 525.898 396.743 523.03 394.08 522.977C388.494 522.865 387.674 528.698 383.521 530.552C382.272 531.11 380.533 530.347 379.289 531.48C378.079 532.583 378.378 534.003 377.229 534.747C376.564 535.176 375.393 535.398 373.168 534.409C373.778 532.326 377.767 519.429 389.391 515.339C392.002 514.418 394.52 514.111 396.762 514.12Z" fill="#A81DFF"/>
<path d="M376.449 532.784C379.75 525.483 386.263 520.626 393.363 520.275C403.022 519.796 412.526 527.721 411.745 533.052C410.95 538.484 399.333 542.232 390.089 540.497C383.155 539.197 378.547 534.999 376.449 532.784Z" fill="#B941FF"/>
<path d="M416.817 358.791C414.297 357.317 413.593 355.284 414.703 352.695C420.365 345.042 438.76 370.831 416.817 358.791Z" fill="#A81DFF"/>
<path d="M556.901 453.334C558.774 455.573 558.75 457.723 556.83 459.785C548.914 465.072 540.32 434.583 556.901 453.334Z" fill="#A81DFF"/>
<path d="M469.812 397.071L459.845 388.785L453.7 385.157L435.032 371.572L424.16 362.136L426.517 357.211C426.517 357.211 480.829 378.229 484.838 378.648L497.27 381.145L507.437 379.78C511.874 381.413 515.685 383.393 518.945 385.48C546.275 402.98 550.826 438.191 551.784 448.287C550.389 448.984 548.995 449.682 547.601 450.379C538.299 437.648 528.999 424.916 519.697 412.186C519.263 425.235 518.83 438.286 518.396 451.335C502.972 450.393 487.549 449.45 472.125 448.509L469.812 397.071Z" fill="#CC75FF"/>
<path d="M472.125 448.507C486.63 448.463 501.135 448.463 515.638 448.33C517.989 448.308 518.45 449.273 518.396 451.335C518.305 454.824 518.447 458.321 518.489 461.806C518.057 471.369 516.888 480.867 515.784 490.375C514.681 499.878 513.803 509.407 512.773 518.918C512.033 525.733 511.204 532.537 510.416 539.346C508.118 540.742 505.821 541.35 503.536 539.32C502.203 526.993 500.77 514.676 499.569 502.337C498.555 491.927 495.673 469.79 495.527 468.647C495.068 469.958 491.515 498.873 489.853 512.332C488.746 521.303 487.967 530.314 487.042 539.308C484.893 540.798 482.597 541.098 480.15 540.152C477.898 520.304 475.476 500.473 473.464 480.6C472.388 469.95 471.774 459.238 472.125 448.507Z" fill="#CC75FF"/>
<path d="M480.152 540.153C482.448 539.871 484.745 539.591 487.043 539.309C487.271 548.884 487.27 548.956 477.789 548.807C475.82 548.776 472.776 550.11 472.164 547.083C471.563 544.11 474.28 542.751 476.606 541.607C477.75 541.043 478.968 540.633 480.152 540.153Z" fill="#CC75FF"/>
<path d="M503.536 539.319C505.827 539.998 508.122 539.526 510.416 539.346C510.591 548.887 510.591 548.944 501.272 548.819C499.282 548.792 496.258 549.941 495.74 546.949C495.233 544.028 497.938 542.751 500.234 541.521C501.387 540.905 503.152 541.108 503.536 539.319Z" fill="#CC75FF"/>
<path d="M501.158 373.684C501.437 371.947 502.402 370.399 503.608 369.398C505.377 367.931 508.386 367.227 504.863 364.537C505.824 356.896 500.526 356.111 495.021 355.556C493.638 353.335 493.858 351.785 494.022 351.14C494.937 347.532 500.816 345.625 505.152 346.856C511.004 348.517 512.61 355.487 512.851 356.645C513.98 362.071 512.069 368.574 507.186 371.469C505.347 372.557 503.489 373.829 501.158 373.684Z" fill="#CC75FF"/>
<path d="M502.687 378.484C500.543 378.004 499.523 377.932 499.245 377.227C498.996 376.59 499.684 375.581 501.157 373.684C503.089 372.186 504.488 370.145 506.369 368.585C507.052 368.018 507.87 367.076 507.431 366.275C506.06 363.773 506.29 360.74 504.645 358.366C502.403 355.129 499.055 354.154 495.021 355.556C494.442 355.959 490.64 358.694 490.236 363.571C490.001 366.399 491.023 368.579 491.544 369.526C491.885 369.975 492.379 370.76 492.593 371.842C493.012 373.96 492.04 375.638 491.765 376.08C489.837 378.007 487.529 378.863 484.837 378.648C487.197 380.398 491.167 382.782 496.156 383.284C498.445 383.514 500.007 383.253 500.507 383.162C503.879 382.537 506.234 380.813 507.436 379.781C506.318 379.418 504.692 378.933 502.687 378.484Z" fill="#A81DFF"/>
<path d="M231.939 169.119C243.434 174.043 266.783 183.772 269.456 161.292C260.991 158.947 255.502 166.74 247.648 163.776C241.651 161.514 240.734 146.148 235.09 146.672C234.526 154.311 233.174 161.539 231.939 169.119Z" fill="#B941FF"/>
<path d="M427.888 288.552C435.978 296.301 444.703 303.725 452.307 311.946C454.05 313.831 458.078 320.625 456.936 321.679C454.648 323.79 433.181 299.676 401.62 274C353.89 235.17 347.893 245.486 330.68 222.064C319.827 207.295 301.479 174.981 286.819 171.939C281.244 170.783 275.743 172.033 275.743 172.033C274.374 172.34 265.249 174.389 262.685 180.302C261.432 183.189 261.137 188.4 268.13 197.978C289.055 226.638 382.981 304.99 408.147 340.361C411.426 344.97 421.121 358.597 417.833 362.257C417.067 363.11 415.304 363.835 410.682 362.337C400.93 359.177 391.023 347.456 383.865 340.657C367.379 324.998 350.925 309.307 334.475 293.611C311.567 271.755 288.238 250.26 265.811 227.904C251.262 213.401 236.435 198.471 248.368 176.548C253.907 166.371 264.797 157.512 276.573 156.265C296.162 154.191 312.843 178.967 325.263 190.858C359.357 223.497 393.046 256.713 427.888 288.552Z" fill="#A81DFF"/>
<path d="M258.311 198.787C257.581 194.772 255.757 184.738 261.541 176.2C266.681 168.613 276.47 164.21 285.249 165.204C292.917 166.07 297.092 170.939 307.649 181.013C316.881 189.822 326.112 198.632 335.344 207.441C353.809 225.058 372.275 242.673 390.749 260.28C399.986 269.083 409.226 277.884 418.467 286.683C425.783 293.648 445.072 312.02 445.072 312.02C443.365 312.296 440.506 312.883 437.187 314.235C437.187 314.235 431.305 316.653 426.538 321.046C416.716 330.095 421.208 347.546 415.586 351.188C405.608 357.655 373.093 314.575 326.297 272.156C298.576 247.026 263.385 226.704 258.311 198.787Z" fill="#EEE0D2"/>
<path d="M226.597 127.759C229.515 126.633 229.353 123.081 232.011 121.681C233.607 120.839 242.663 120.206 244.039 120.085C243.657 124.646 244.482 134.016 239.949 137.093C230.988 143.179 224.432 137.753 226.597 127.759Z" fill="#A81DFF"/>
<path d="M226.597 130.475C229.15 129.372 228.049 125.104 229.64 123.729C232.287 121.445 239.214 124.776 242.381 122.41C248.888 117.549 250.706 116.391 249.909 104.999C244.87 116.256 211.595 108.444 226.597 130.475Z" fill="#A81DFF"/>
<path d="M229.198 136.329L225.914 139.613C232.411 145.861 236.587 149.875 236.587 149.875C236.587 149.875 235.444 146.878 233.303 141.254C233.713 139.065 234.123 136.875 234.534 134.686L229.198 136.329Z" fill="#A81DFF"/>
<path d="M243.875 291.084C250.125 286.785 248.659 275.04 246.426 258.705C244.827 247.015 242.953 239.376 239.939 227.237C238.091 219.798 235.614 209.079 233.204 195.834C231.62 194.513 227.235 191.211 220.675 190.613C212.98 189.912 207.4 193.395 205.809 194.47C204.525 204.586 202.615 214.67 202.104 224.827C201.329 240.233 197.133 254.518 190.566 268.307C188.066 273.557 186.043 279.03 183.665 284.34C182.77 286.337 183.002 287.824 184.75 289.086C184.881 289.08 185.015 289.074 185.148 289.068C185.384 289.059 185.545 289.053 185.551 289.053C185.936 289.04 191.046 288.092 192.141 287.688C193.062 287.349 205.445 282.121 216.438 249.677C217.868 245.455 219.794 239.241 221.524 231.494C224.184 236.517 227.759 244.496 229.499 254.763C232.674 273.493 226.035 286.646 232.68 291.363C235.852 293.616 240.851 293.165 243.875 291.084Z" fill="#CC75FF"/>
<path d="M205.808 194.47L233.81 199.243C233.81 199.243 248.467 155.807 234.241 143.549C220.016 131.29 205.394 142.69 205.808 194.47Z" fill="#CC75FF"/>
<path d="M258.399 202.762C243.958 194.436 240.216 185.364 236.804 169.757C233.186 153.208 230.036 144.786 224.601 143.654C223.793 143.486 223.099 143.526 222.68 143.576C211.493 144.857 218.479 171.305 219.524 175.522C225.255 198.65 243.196 212.251 266.936 213.797C268.926 207.25 266.08 203.572 258.399 202.762Z" fill="#CC75FF"/>
<path d="M272.301 206.527C275.056 206.388 276.664 207.628 277.126 210.25C276.614 219.225 248.731 208.372 272.301 206.527Z" fill="#A81DFF"/>
<path d="M183.175 283.852V293.114C183.175 293.114 212.696 297.037 211.657 292.756C210.616 288.476 183.175 283.852 183.175 283.852Z" fill="#CC75FF"/>
<path d="M230.323 285.687V294.949C230.323 294.949 259.844 298.872 258.805 294.591C257.766 290.311 230.323 285.687 230.323 285.687Z" fill="#CC75FF"/>
<path d="M355.213 587.511L355.211 587.512L355.213 587.511C355.558 584.931 357.459 573.232 359.344 562.31C358.621 558.243 358.199 542.146 360.363 540.046C359.911 536.953 350.326 530.618 349.994 539.485C349.978 539.922 350.149 539.913 349.95 540.606C347.189 550.239 349.439 559.939 349.632 569.608C350.134 576.949 350.807 584.283 349.913 591.654C349.834 591.957 349.741 592.51 349.643 593.224C351.575 593.484 353.532 593.706 355.511 593.893C355.104 591.965 355.031 589.766 355.213 587.511Z" fill="#A81DFF"/>
<path d="M360.742 431.471C359.002 430.931 357.262 430.392 355.521 429.852C352.262 428.922 353.067 426.638 353.781 424.457C354.502 422.259 356.599 420.985 357.6 418.966C357.721 418.616 357.871 418.277 358.029 417.945C360.007 414.625 358.662 411.535 357.296 408.496C356.444 406.602 355.229 406.69 353.666 407.918C347.067 413.105 346.549 414.503 348.919 422.5C349.734 425.25 349.678 428.024 349.538 430.83C348.727 433.66 348.723 436.711 347.186 439.335C343.575 446.033 343.57 446.052 335.894 444.351C334.31 443.999 332.77 443.455 331.21 443.001C329.64 441.198 330.638 439.294 331.421 437.757C335.935 428.894 338.04 419.549 338.007 409.607C337.99 404.11 343.502 399.579 349.684 399.499C356.032 399.418 360.711 403.331 360.851 409.343C361.023 416.714 360.795 424.094 360.742 431.471Z" fill="#CC75FF"/>
<path d="M319.042 494.799C320.771 495.042 322.5 495.286 324.229 495.529C323.278 497.445 322.447 499.382 322.685 501.61C322.812 502.805 322.528 503.771 321.246 504.343C320.006 504.895 318.945 504.539 318.118 503.796C317.143 502.92 317.535 501.703 317.982 500.651C318.471 499.501 319.14 498.418 318.979 497.091C318.999 496.328 319.02 495.563 319.042 494.799Z" fill="#A81DFF"/>
<path d="M369.575 454.941C366.95 451.18 362.023 434.584 360.113 431.611C358.391 429.759 351.585 429.096 348.099 430.659C346.258 430.485 343.29 430.451 340.173 431.738C337.261 432.941 329.869 437.093 322.946 470.492C321.736 476.33 320.214 484.641 319.041 494.797C320.626 496.058 322.27 496.898 324.227 495.528C324.517 494.532 324.808 493.535 325.097 492.539C327.647 489.918 332.059 470.228 334.012 464.622C334.647 469.618 333.585 475.084 330.369 480.11C329.54 481.406 329.317 483.05 331.103 484.074C335.337 485.031 339.627 484.535 343.897 484.446C346.109 484.4 353.621 484.485 358.825 484.563C361.595 484.604 364.397 484.905 367.136 484.111C368.766 483.352 368.717 481.937 368.518 480.513C368.288 478.861 367.635 477.338 367.006 475.801C365.184 471.351 364.562 466.706 364.673 461.887C368.127 465.546 371.994 467.986 376.816 468.954C379.31 469.454 384.301 470.427 384.301 470.427L392.383 470.331C394.045 467.341 393.803 465.683 393.351 464.749C390.925 459.708 369.575 454.941 369.575 454.941Z" fill="#A81DFF"/>
<path d="M348.099 430.661C349.256 431.115 350.997 430.377 352.186 430.765C352.975 430.433 353.877 430.237 354.891 430.209C354.891 430.137 354.891 430.066 354.891 429.993C354.102 429.142 353.697 428.312 353.57 427.492C353.302 425.746 353.87 423.853 355.141 422.841C356.199 421.996 356.875 422.426 357.871 421.725C359.384 420.662 359.52 418.484 359.644 416.504C359.644 416.504 360.037 410.236 356.463 406.271C355.854 405.595 355.316 405.318 354.791 405.309C354.283 405.301 353.74 405.592 353.062 406.286C351.017 408.379 349.612 411.285 346.459 412.159C345.885 412.318 345.607 412.823 345.771 413.325C346.561 415.734 345.206 418.333 346.502 420.698C348.215 423.818 348.296 427.222 348.099 430.661Z" fill="#A81DFF"/>
<path d="M332.205 602.297C332.183 603.756 332.685 604.748 334.268 604.863C336.109 604.996 344.413 604.662 345.617 604.519C347.839 604.256 347 599.177 344.158 598.637C341.305 598.094 339.747 596.264 339.085 593.881C337.105 593.738 335.148 593.571 333.216 593.374C332.782 595.763 332.232 600.563 332.205 602.297Z" fill="#A81DFF"/>
<path d="M338.788 587.497C339.134 584.917 341.035 573.219 342.919 562.296C342.196 558.23 341.774 542.133 343.938 540.032C343.486 536.94 333.901 530.605 333.569 539.471C333.553 539.908 333.724 539.899 333.525 540.593C330.765 550.226 333.014 559.926 333.207 569.597C333.709 576.937 334.382 584.271 333.488 591.642C333.41 591.945 333.317 592.498 333.218 593.213C335.15 593.472 337.107 593.694 339.086 593.881C338.679 591.952 338.607 589.754 338.788 587.497Z" fill="#A81DFF"/>
<path d="M347.194 430.532C347.194 430.532 343.312 435.291 348.071 437.543C352.829 439.796 360.336 432.959 354.893 429.992L347.194 430.532Z" fill="#A81DFF"/>
<path d="M366.261 552.079C366.159 553.028 366.367 554.192 365.191 554.749C355.555 556.476 345.824 555.21 336.146 555.651C334.028 555.747 331.845 555.833 329.827 554.866C328.238 553.305 324.595 499.997 326.61 492.467C326.853 488.933 327.619 485.625 330.595 483.277C334.612 483.277 364.764 483.35 367.656 483.388C369.248 484.321 369.42 485.962 369.728 487.537C371.052 494.49 367.809 537.545 366.261 552.079Z" fill="#CC75FF"/>
<path d="M348.63 601.187C348.608 602.646 349.11 603.637 350.694 603.753C352.534 603.885 360.838 603.552 362.042 603.409C364.264 603.146 363.425 598.067 360.583 597.527C357.73 596.984 356.172 595.153 355.51 592.771C353.53 592.628 351.573 592.461 349.641 592.263C349.207 594.652 348.655 599.453 348.63 601.187Z" fill="#A81DFF"/>
<path d="M435.763 596.396C426.718 598.663 417.671 600.932 408.626 603.199C415.097 613.255 421.568 623.31 428.039 633.366C429.761 632.815 431.484 632.263 433.208 631.714C433.884 630.422 434.101 629.059 434.163 627.683C434.251 625.673 434.254 624.666 434.175 623.572C434.054 621.893 434.338 615.276 435.763 596.396Z" fill="#EEE0D2"/>
<path d="M362.85 376.062C352.987 371.634 352.02 356.064 357.629 350.294C360.637 347.199 365.892 346.452 368.746 346.195C371.121 345.981 373.573 346.166 376.106 346.79C378.733 347.436 380.309 348.867 380.861 351.714C381.887 357.001 383.245 362.223 384.466 367.473C379.644 375.951 369.862 379.209 362.85 376.062Z" fill="#A81DFF"/>
<path d="M358.04 373.519C366.848 371.504 375.659 369.488 384.467 367.473C385.929 374.79 387.388 382.108 388.85 389.424C380.215 389.576 371.582 389.727 362.947 389.879C361.312 384.425 359.675 378.971 358.04 373.519Z" fill="#EEE0D2"/>
<path d="M433.549 638.753C432.97 639.642 432.529 640.666 431.36 640.975C429.688 638.685 428.346 636.253 428.037 633.367C429.761 632.815 431.484 632.265 433.206 631.714C434.431 634.008 433.429 636.408 433.549 638.753Z" fill="#A81DFF"/>
<path d="M388.24 385.009L362.947 389.879L408.627 603.201L435.763 596.396L388.24 385.009Z" fill="#CC75FF"/>
</g>
<defs>
<clipPath id="clip0_67_1833">
<rect width="738" height="738" fill="white"/>
</clipPath>
</defs>
</svg>
